{
	"asset":{
		"generator":"Khronos glTF Blender I/O v3.5.30",
		"version":"2.0"
	},
	"scene":0,
	"scenes":[
		{
			"name":"Scene",
			"nodes":[
				0,
				1,
				2
			]
		}
	],
	"nodes":[
		{
			"mesh":0,
			"name":"BridgeBody",
			"scale":[
				0.43881189823150635,
				0.43881189823150635,
				0.43881189823150635
			]
		},
		{
			"mesh":1,
			"name":"Poles",
			"scale":[
				0.43881189823150635,
				0.43881189823150635,
				0.43881189823150635
			]
		},
		{
			"mesh":2,
			"name":"Lantern",
			"translation":[
				0,
				1.8966968059539795,
				0
			]
		}
	],
	"materials":[
		{
			"doubleSided":true,
			"name":"SphereMaskMaterial",
			"pbrMetallicRoughness":{}
		},
		{
			"doubleSided":true,
			"name":"PolesMaterial",
			"pbrMetallicRoughness":{}
		},
		{
			"doubleSided":true,
			"name":"LanternMaterial",
			"pbrMetallicRoughness":{
				"baseColorFactor":[
					0.800000011920929,
					0.800000011920929,
					0.800000011920929,
					1
				],
				"metallicFactor":0,
				"roughnessFactor":0.5
			}
		}
	],
	"meshes":[
		{
			"name":"Cube.001",
			"primitives":[
				{
					"attributes":{
						"POSITION":0,
						"TEXCOORD_0":1,
						"NORMAL":2
					},
					"indices":3,
					"material":0
				}
			]
		},
		{
			"name":"Cube.006",
			"primitives":[
				{
					"attributes":{
						"POSITION":4,
						"TEXCOORD_0":5,
						"NORMAL":6,
						"TANGENT":7
					},
					"indices":8,
					"material":1
				}
			]
		},
		{
			"name":"Circle",
			"primitives":[
				{
					"attributes":{
						"POSITION":9,
						"TEXCOORD_0":10,
						"NORMAL":11,
						"TANGENT":12
					},
					"indices":13,
					"material":2
				}
			]
		}
	],
	"accessors":[
		{
			"bufferView":0,
			"componentType":5126,
			"count":17688,
			"max":[
				9.056136131286621,
				1.8535255193710327,
				1.0000003576278687
			],
			"min":[
				-7.787493705749512,
				-0.7641035318374634,
				-1.0000017881393433
			],
			"type":"VEC3"
		},
		{
			"bufferView":1,
			"componentType":5126,
			"count":17688,
			"type":"VEC2"
		},
		{
			"bufferView":2,
			"componentType":5126,
			"count":17688,
			"type":"VEC3"
		},
		{
			"bufferView":3,
			"componentType":5123,
			"count":34056,
			"type":"SCALAR"
		},
		{
			"bufferView":4,
			"componentType":5126,
			"count":718,
			"max":[
				9.46015739440918,
				2.490048885345459,
				1.2571977376937866
			],
			"min":[
				-8.184449195861816,
				-0.00822913646697998,
				-1.259678602218628
			],
			"type":"VEC3"
		},
		{
			"bufferView":5,
			"componentType":5126,
			"count":718,
			"type":"VEC2"
		},
		{
			"bufferView":6,
			"componentType":5126,
			"count":718,
			"type":"VEC3"
		},
		{
			"bufferView":7,
			"componentType":5126,
			"count":718,
			"type":"VEC4"
		},
		{
			"bufferView":8,
			"componentType":5123,
			"count":1920,
			"type":"SCALAR"
		},
		{
			"bufferView":9,
			"componentType":5126,
			"count":825,
			"max":[
				0.2109748125076294,
				-0.029333332553505898,
				0.2109748125076294
			],
			"min":[
				-0.2109748125076294,
				-0.8786423802375793,
				-0.2109748125076294
			],
			"type":"VEC3"
		},
		{
			"bufferView":10,
			"componentType":5126,
			"count":825,
			"type":"VEC2"
		},
		{
			"bufferView":11,
			"componentType":5126,
			"count":825,
			"type":"VEC3"
		},
		{
			"bufferView":12,
			"componentType":5126,
			"count":825,
			"type":"VEC4"
		},
		{
			"bufferView":13,
			"componentType":5123,
			"count":3264,
			"type":"SCALAR"
		}
	],
	"bufferViews":[
		{
			"buffer":0,
			"byteLength":212256,
			"byteOffset":0,
			"target":34962
		},
		{
			"buffer":0,
			"byteLength":141504,
			"byteOffset":212256,
			"target":34962
		},
		{
			"buffer":0,
			"byteLength":212256,
			"byteOffset":353760,
			"target":34962
		},
		{
			"buffer":0,
			"byteLength":68112,
			"byteOffset":566016,
			"target":34963
		},
		{
			"buffer":0,
			"byteLength":8616,
			"byteOffset":634128,
			"target":34962
		},
		{
			"buffer":0,
			"byteLength":5744,
			"byteOffset":642744,
			"target":34962
		},
		{
			"buffer":0,
			"byteLength":8616,
			"byteOffset":648488,
			"target":34962
		},
		{
			"buffer":0,
			"byteLength":11488,
			"byteOffset":657104,
			"target":34962
		},
		{
			"buffer":0,
			"byteLength":3840,
			"byteOffset":668592,
			"target":34963
		},
		{
			"buffer":0,
			"byteLength":9900,
			"byteOffset":672432,
			"target":34962
		},
		{
			"buffer":0,
			"byteLength":6600,
			"byteOffset":682332,
			"target":34962
		},
		{
			"buffer":0,
			"byteLength":9900,
			"byteOffset":688932,
			"target":34962
		},
		{
			"buffer":0,
			"byteLength":13200,
			"byteOffset":698832,
			"target":34962
		},
		{
			"buffer":0,
			"byteLength":6528,
			"byteOffset":712032,
			"target":34963
		}
	],
	"buffers":[
		{
			"byteLength":718560,
			"uri":"bridge-lantern-d434675454e101149c7c969a1ea28a47.bin"
		}
	]
}
