{
	"asset":{
		"generator":"Khronos glTF Blender I/O v3.5.30",
		"version":"2.0"
	},
	"scene":0,
	"scenes":[
		{
			"name":"Scene",
			"nodes":[
				0,
				1,
				2,
				3,
				4,
				5,
				6
			]
		}
	],
	"nodes":[
		{
			"mesh":0,
			"name":"detail_forest",
			"translation":[
				2,
				1,
				1.7000000476837158
			]
		},
		{
			"mesh":1,
			"name":"rocksB_desert"
		},
		{
			"mesh":2,
			"name":"tileLarge_forest"
		},
		{
			"mesh":3,
			"name":"tree_forest",
			"translation":[
				2.000000238418579,
				1,
				0
			]
		},
		{
			"mesh":0,
			"name":"detail_forest.001",
			"rotation":[
				0,
				-0.7660444378852844,
				0,
				0.6427876353263855
			],
			"translation":[
				-2,
				1,
				-2
			]
		},
		{
			"mesh":3,
			"name":"tree_forest.001",
			"rotation":[
				0,
				0.3475339114665985,
				0,
				0.9376674294471741
			],
			"translation":[
				2.000000238418579,
				3,
				-2
			]
		},
		{
			"mesh":3,
			"name":"tree_forest.002",
			"translation":[
				-3.999999761581421,
				1.5,
				0
			]
		}
	],
	"materials":[
		{
			"doubleSided":true,
			"name":"AtlasMaterial",
			"pbrMetallicRoughness":{
				"metallicFactor":0,
				"roughnessFactor":0.5
			}
		},
		{
			"name":"BrownDark.011",
			"pbrMetallicRoughness":{
				"baseColorFactor":[
					0.32694560289382935,
					0.10152623057365417,
					0.05927089974284172,
					1
				],
				"metallicFactor":0,
				"roughnessFactor":0.4000000059604645
			}
		}
	],
	"meshes":[
		{
			"name":"Cube.1556",
			"primitives":[
				{
					"attributes":{
						"POSITION":0,
						"TEXCOORD_0":1,
						"NORMAL":2,
						"TANGENT":3
					},
					"indices":4,
					"material":0
				}
			]
		},
		{
			"name":"Cube.1591",
			"primitives":[
				{
					"attributes":{
						"POSITION":5,
						"TEXCOORD_0":6,
						"NORMAL":7,
						"TANGENT":8
					},
					"indices":9,
					"material":1
				}
			]
		},
		{
			"name":"Cube.1605",
			"primitives":[
				{
					"attributes":{
						"POSITION":10,
						"TEXCOORD_0":11,
						"NORMAL":12
					},
					"indices":13,
					"material":0
				}
			]
		},
		{
			"name":"Cylinder.067",
			"primitives":[
				{
					"attributes":{
						"POSITION":14,
						"TEXCOORD_0":15,
						"NORMAL":16,
						"TANGENT":17
					},
					"indices":18,
					"material":0
				}
			]
		}
	],
	"accessors":[
		{
			"bufferView":0,
			"componentType":5126,
			"count":2240,
			"max":[
				0.9771707057952881,
				0.25372791290283203,
				0.8731318712234497
			],
			"min":[
				-0.7232840061187744,
				-0.07732516527175903,
				-0.7905747890472412
			],
			"type":"VEC3"
		},
		{
			"bufferView":1,
			"componentType":5126,
			"count":2240,
			"type":"VEC2"
		},
		{
			"bufferView":2,
			"componentType":5126,
			"count":2240,
			"type":"VEC3"
		},
		{
			"bufferView":3,
			"componentType":5126,
			"count":2240,
			"type":"VEC4"
		},
		{
			"bufferView":4,
			"componentType":5123,
			"count":8520,
			"type":"SCALAR"
		},
		{
			"bufferView":5,
			"componentType":5126,
			"count":456,
			"max":[
				0.8050174117088318,
				0.5000001192092896,
				0.6828240752220154
			],
			"min":[
				-0.750419020652771,
				1.1920928955078125e-07,
				-0.6964550614356995
			],
			"type":"VEC3"
		},
		{
			"bufferView":6,
			"componentType":5126,
			"count":456,
			"type":"VEC2"
		},
		{
			"bufferView":7,
			"componentType":5126,
			"count":456,
			"type":"VEC3"
		},
		{
			"bufferView":8,
			"componentType":5126,
			"count":456,
			"type":"VEC4"
		},
		{
			"bufferView":9,
			"componentType":5123,
			"count":1656,
			"type":"SCALAR"
		},
		{
			"bufferView":10,
			"componentType":5126,
			"count":3592,
			"max":[
				3.000000238418579,
				3,
				3
			],
			"min":[
				-5,
				0,
				-3.000000238418579
			],
			"type":"VEC3"
		},
		{
			"bufferView":11,
			"componentType":5126,
			"count":3592,
			"type":"VEC2"
		},
		{
			"bufferView":12,
			"componentType":5126,
			"count":3592,
			"type":"VEC3"
		},
		{
			"bufferView":13,
			"componentType":5123,
			"count":17472,
			"type":"SCALAR"
		},
		{
			"bufferView":14,
			"componentType":5126,
			"count":850,
			"max":[
				0.7638871669769287,
				3.0005135536193848,
				0.7522823214530945
			],
			"min":[
				-0.7638871669769287,
				3.5762788286319847e-08,
				-0.7522819638252258
			],
			"type":"VEC3"
		},
		{
			"bufferView":15,
			"componentType":5126,
			"count":850,
			"type":"VEC2"
		},
		{
			"bufferView":16,
			"componentType":5126,
			"count":850,
			"type":"VEC3"
		},
		{
			"bufferView":17,
			"componentType":5126,
			"count":850,
			"type":"VEC4"
		},
		{
			"bufferView":18,
			"componentType":5123,
			"count":2238,
			"type":"SCALAR"
		}
	],
	"bufferViews":[
		{
			"buffer":0,
			"byteLength":26880,
			"byteOffset":0,
			"target":34962
		},
		{
			"buffer":0,
			"byteLength":17920,
			"byteOffset":26880,
			"target":34962
		},
		{
			"buffer":0,
			"byteLength":26880,
			"byteOffset":44800,
			"target":34962
		},
		{
			"buffer":0,
			"byteLength":35840,
			"byteOffset":71680,
			"target":34962
		},
		{
			"buffer":0,
			"byteLength":17040,
			"byteOffset":107520,
			"target":34963
		},
		{
			"buffer":0,
			"byteLength":5472,
			"byteOffset":124560,
			"target":34962
		},
		{
			"buffer":0,
			"byteLength":3648,
			"byteOffset":130032,
			"target":34962
		},
		{
			"buffer":0,
			"byteLength":5472,
			"byteOffset":133680,
			"target":34962
		},
		{
			"buffer":0,
			"byteLength":7296,
			"byteOffset":139152,
			"target":34962
		},
		{
			"buffer":0,
			"byteLength":3312,
			"byteOffset":146448,
			"target":34963
		},
		{
			"buffer":0,
			"byteLength":43104,
			"byteOffset":149760,
			"target":34962
		},
		{
			"buffer":0,
			"byteLength":28736,
			"byteOffset":192864,
			"target":34962
		},
		{
			"buffer":0,
			"byteLength":43104,
			"byteOffset":221600,
			"target":34962
		},
		{
			"buffer":0,
			"byteLength":34944,
			"byteOffset":264704,
			"target":34963
		},
		{
			"buffer":0,
			"byteLength":10200,
			"byteOffset":299648,
			"target":34962
		},
		{
			"buffer":0,
			"byteLength":6800,
			"byteOffset":309848,
			"target":34962
		},
		{
			"buffer":0,
			"byteLength":10200,
			"byteOffset":316648,
			"target":34962
		},
		{
			"buffer":0,
			"byteLength":13600,
			"byteOffset":326848,
			"target":34962
		},
		{
			"buffer":0,
			"byteLength":4476,
			"byteOffset":340448,
			"target":34963
		}
	],
	"buffers":[
		{
			"byteLength":344924,
			"uri":"Scene-9033a8e083ed9a6265a9c212e4b5bef2.bin"
		}
	]
}
