{
	"asset":{
		"generator":"Khronos glTF Blender I/O v3.5.30",
		"version":"2.0"
	},
	"scene":0,
	"scenes":[
		{
			"name":"Scene",
			"nodes":[
				0,
				1,
				2,
				41
			]
		}
	],
	"nodes":[
		{
			"mesh":0,
			"name":"Water.001",
			"translation":[
				-0.01909196376800537,
				-0.15931153297424316,
				0.3592073917388916
			]
		},
		{
			"mesh":1,
			"name":"BottomWaterfall"
		},
		{
			"mesh":2,
			"name":"Water",
			"translation":[
				-0.027764469385147095,
				2.5987625122070312e-05,
				1.4104957580566406
			]
		},
		{
			"mesh":3,
			"name":"Cube",
			"translation":[
				-1.4716308116912842,
				1.0602067708969116,
				-0.2142345905303955
			]
		},
		{
			"mesh":3,
			"name":"Cube.001",
			"rotation":[
				0,
				0.708548903465271,
				0,
				0.7056617140769958
			],
			"scale":[
				0.6207746267318726,
				1,
				0.6207746267318726
			],
			"translation":[
				-1.5644199848175049,
				2.75211501121521,
				-2.1775550842285156
			]
		},
		{
			"mesh":3,
			"name":"Cube.002",
			"rotation":[
				0,
				0.20306654274463654,
				0,
				0.9791649580001831
			],
			"translation":[
				-2.3821136951446533,
				2.2974250316619873,
				-3.092735767364502
			]
		},
		{
			"mesh":3,
			"name":"Cube.003",
			"rotation":[
				0,
				0.20306654274463654,
				0,
				0.9791649580001831
			],
			"scale":[
				1,
				1.5384124517440796,
				1
			],
			"translation":[
				-2.9863667488098145,
				2.0073835849761963,
				-5.48154878616333
			]
		},
		{
			"mesh":3,
			"name":"Cube.004",
			"rotation":[
				0,
				0.20306658744812012,
				0,
				0.9791649580001831
			],
			"scale":[
				1,
				1,
				1.3218084573745728
			],
			"translation":[
				-3.0065083503723145,
				1.2581100463867188,
				-2.6294751167297363
			]
		},
		{
			"mesh":3,
			"name":"Cube.005",
			"scale":[
				0.4991462230682373,
				0.8040699362754822,
				0.4991462230682373
			],
			"translation":[
				-1.5442781448364258,
				2.43790340423584,
				0.4096684753894806
			]
		},
		{
			"mesh":3,
			"name":"Cube.006",
			"scale":[
				0.3743225336074829,
				0.8040699362754822,
				0.3743225336074829
			],
			"translation":[
				-1.3495745658874512,
				0.6976550817489624,
				1.1790838241577148
			]
		},
		{
			"mesh":3,
			"name":"Cube.007",
			"rotation":[
				0,
				0.9267240166664124,
				0,
				0.37574300169944763
			],
			"scale":[
				1,
				1.9119054079055786,
				1
			],
			"translation":[
				-1.4354509115219116,
				2.466615676879883,
				-6.851188659667969
			]
		},
		{
			"mesh":3,
			"name":"Cube.008",
			"rotation":[
				0,
				-0.5920997858047485,
				0,
				0.805864691734314
			],
			"scale":[
				0.6164257526397705,
				0.6164258122444153,
				0.6164257526397705
			],
			"translation":[
				-1.4716308116912842,
				2.75211501121521,
				-0.9730775356292725
			]
		},
		{
			"mesh":3,
			"name":"Cube.009",
			"rotation":[
				0,
				-0.34240737557411194,
				0,
				0.939551591873169
			],
			"scale":[
				0.281998872756958,
				0.281998872756958,
				0.281998872756958
			],
			"translation":[
				-2.6227574348449707,
				0.14174240827560425,
				0.9966692328453064
			]
		},
		{
			"mesh":3,
			"name":"Cube.010",
			"scale":[
				1,
				1,
				1.7523881196975708
			],
			"translation":[
				0.03900146484375,
				0.9151861071586609,
				-2.1292147636413574
			]
		},
		{
			"mesh":3,
			"name":"Cube.011",
			"scale":[
				0.6207746267318726,
				1,
				0.6207746267318726
			],
			"translation":[
				0.0267794132232666,
				2.75211501121521,
				-5.68222188949585
			]
		},
		{
			"mesh":3,
			"name":"Cube.012",
			"scale":[
				0.6164258122444153,
				0.6164258122444153,
				0.6164258122444153
			],
			"translation":[
				-1.4716308116912842,
				3.06632661819458,
				-5.517059326171875
			]
		},
		{
			"mesh":3,
			"name":"Cube.013",
			"scale":[
				0.6164258122444153,
				0.6164258122444153,
				0.6164258122444153
			],
			"translation":[
				0.8245303630828857,
				2.8487956523895264,
				-5.114223957061768
			]
		},
		{
			"mesh":3,
			"name":"Cube.014",
			"rotation":[
				0,
				0.006131310481578112,
				0,
				0.9999812245368958
			],
			"translation":[
				1.9685072898864746,
				2.2974250316619873,
				-1.19940984249115
			]
		},
		{
			"mesh":3,
			"name":"Cube.015",
			"scale":[
				0.6207746267318726,
				1,
				0.6207746267318726
			],
			"translation":[
				1.5374116897583008,
				1.9878472089767456,
				0.7597854733467102
			]
		},
		{
			"mesh":3,
			"name":"Cube.016",
			"rotation":[
				0,
				-0.6148579716682434,
				0,
				0.7886378765106201
			],
			"scale":[
				1,
				1.9119054079055786,
				1
			],
			"translation":[
				1.5858136415481567,
				2.466615676879883,
				-4.293184757232666
			]
		},
		{
			"mesh":3,
			"name":"Cube.017",
			"scale":[
				0.6207746267318726,
				1,
				0.6207746267318726
			],
			"translation":[
				1.456844687461853,
				2.75211501121521,
				-2.7415244579315186
			]
		},
		{
			"mesh":3,
			"name":"Cube.018",
			"rotation":[
				0,
				0.049317870289087296,
				0,
				0.9987831711769104
			],
			"scale":[
				1,
				1,
				2.2284927368164062
			],
			"translation":[
				2.133744955062866,
				0.9151861071586609,
				-2.3709158897399902
			]
		},
		{
			"mesh":3,
			"name":"Cube.019",
			"rotation":[
				0,
				-0.34240737557411194,
				0,
				0.939551591873169
			],
			"scale":[
				0.281998872756958,
				0.281998872756958,
				0.281998872756958
			],
			"translation":[
				2.8789901733398438,
				0.14174240827560425,
				-4.594566345214844
			]
		},
		{
			"mesh":3,
			"name":"Cube.020",
			"rotation":[
				0,
				0.006131312809884548,
				0,
				0.9999812841415405
			],
			"scale":[
				0.5049605965614319,
				0.5049605965614319,
				0.5049605965614319
			],
			"translation":[
				2.5526185035705566,
				0.4948490560054779,
				0.9623608589172363
			]
		},
		{
			"mesh":3,
			"name":"Cube.021",
			"rotation":[
				0,
				-0.19769549369812012,
				0,
				0.9802635908126831
			],
			"scale":[
				0.23338618874549866,
				0.23338618874549866,
				0.4424416124820709
			],
			"translation":[
				2.374047040939331,
				0.2336227297782898,
				2.482473134994507
			]
		},
		{
			"mesh":3,
			"name":"Cube.022",
			"rotation":[
				0,
				0.5854995846748352,
				0,
				0.8106727004051208
			],
			"scale":[
				0.5742390155792236,
				0.5742390155792236,
				0.5742390155792236
			],
			"translation":[
				1.6663808822631836,
				0.46788203716278076,
				1.09641695022583
			]
		},
		{
			"mesh":3,
			"name":"Cube.023",
			"scale":[
				0.2684738039970398,
				0.5766997933387756,
				0.2684738039970398
			],
			"translation":[
				-1.7859793901443481,
				1.5152015686035156,
				0.6367509365081787
			]
		},
		{
			"mesh":3,
			"name":"Cube.024",
			"scale":[
				0.2684738039970398,
				0.5766997933387756,
				0.2684738039970398
			],
			"translation":[
				-1.2152961492538452,
				2.065629005432129,
				1.1062331199645996
			]
		},
		{
			"mesh":3,
			"name":"Cube.025",
			"scale":[
				0.4142557382583618,
				0.4142557382583618,
				0.4142557382583618
			],
			"translation":[
				-1.8112930059432983,
				0.5097793936729431,
				0.7004461884498596
			]
		},
		{
			"mesh":3,
			"name":"Cube.026",
			"rotation":[
				0,
				0.14119555056095123,
				0,
				0.9899817109107971
			],
			"scale":[
				0.22960415482521057,
				0.22960415482521057,
				0.22960415482521057
			],
			"translation":[
				-2.7602996826171875,
				0.14174240827560425,
				1.896132230758667
			]
		},
		{
			"mesh":3,
			"name":"Cube.027",
			"rotation":[
				0,
				0.48272010684013367,
				0,
				0.8757746815681458
			],
			"scale":[
				0.23338618874549866,
				0.23338618874549866,
				0.4424416124820709
			],
			"translation":[
				-1.8520698547363281,
				0.10411041975021362,
				3.102189779281616
			]
		},
		{
			"mesh":3,
			"name":"Cube.028",
			"rotation":[
				0,
				0.8009567260742188,
				0,
				0.5987222790718079
			],
			"scale":[
				0.23338618874549866,
				0.3104982376098633,
				0.3354015052318573
			],
			"translation":[
				0.3800753653049469,
				0.30647343397140503,
				3.540459632873535
			]
		},
		{
			"mesh":3,
			"name":"Cube.029",
			"rotation":[
				0,
				0.6761393547058105,
				0,
				0.7367738485336304
			],
			"scale":[
				0.2819988429546356,
				0.281998872756958,
				0.2819988429546356
			],
			"translation":[
				-1.0254820585250854,
				0.14174240827560425,
				3.3857831954956055
			]
		},
		{
			"mesh":3,
			"name":"Cube.030",
			"rotation":[
				0,
				0.9096456170082092,
				0,
				0.4153852164745331
			],
			"scale":[
				0.25443142652511597,
				0.25443142652511597,
				0.25443142652511597
			],
			"translation":[
				-0.38983553647994995,
				0.14174240827560425,
				3.532261848449707
			]
		},
		{
			"mesh":3,
			"name":"Cube.031",
			"rotation":[
				0,
				0.8572242856025696,
				0,
				0.5149432420730591
			],
			"scale":[
				0.18347862362861633,
				0.18347862362861633,
				0.18347862362861633
			],
			"translation":[
				1.0054008960723877,
				0.14174240827560425,
				3.496516227722168
			]
		},
		{
			"mesh":3,
			"name":"Cube.032",
			"rotation":[
				0,
				-0.5122705698013306,
				0,
				0.8588242530822754
			],
			"scale":[
				0.23338618874549866,
				0.23338618874549866,
				0.4424416124820709
			],
			"translation":[
				1.6587501764297485,
				0.193150132894516,
				3.122393846511841
			]
		},
		{
			"mesh":3,
			"name":"Cube.033",
			"rotation":[
				0,
				0.9267240166664124,
				0,
				0.37574303150177
			],
			"scale":[
				1.3717964887619019,
				1.9119054079055786,
				1
			],
			"translation":[
				1.1494084596633911,
				2.466615676879883,
				-6.968682289123535
			]
		},
		{
			"mesh":3,
			"name":"Cube.034",
			"rotation":[
				0,
				0.006131311878561974,
				0,
				0.9999812245368958
			],
			"scale":[
				0.27669763565063477,
				0.5049605965614319,
				0.27669763565063477
			],
			"translation":[
				2.6338226795196533,
				0.4948490560054779,
				1.7632911205291748
			]
		},
		{
			"mesh":3,
			"name":"Cube.035",
			"rotation":[
				0,
				0.006131311878561974,
				0,
				0.9999812245368958
			],
			"scale":[
				0.22683937847614288,
				0.41397151350975037,
				0.22683937847614288
			],
			"translation":[
				-2.844550371170044,
				0.20950740575790405,
				1.4736754894256592
			]
		},
		{
			"mesh":3,
			"name":"Cube.036",
			"rotation":[
				0,
				0.8572242856025696,
				0,
				0.5149432420730591
			],
			"scale":[
				0.18347862362861633,
				0.18347862362861633,
				0.18347862362861633
			],
			"translation":[
				-2.6201171875,
				0.14174240827560425,
				2.2712254524230957
			]
		},
		{
			"mesh":3,
			"name":"Cube.037",
			"rotation":[
				0,
				-0.4977554380893707,
				0,
				0.8673174381256104
			],
			"scale":[
				0.2268393635749817,
				0.41397151350975037,
				0.2268393635749817
			],
			"translation":[
				-2.4081456661224365,
				0.20950740575790405,
				2.6989660263061523
			]
		},
		{
			"children":[
				3,
				4,
				5,
				6,
				7,
				8,
				9,
				10,
				11,
				12,
				13,
				14,
				15,
				16,
				17,
				18,
				19,
				20,
				21,
				22,
				23,
				24,
				25,
				26,
				27,
				28,
				29,
				30,
				31,
				32,
				33,
				34,
				35,
				36,
				37,
				38,
				39,
				40
			],
			"name":"Rocks"
		}
	],
	"materials":[
		{
			"doubleSided":true,
			"name":"WaterfallMaterial.001",
			"pbrMetallicRoughness":{
				"metallicFactor":0,
				"roughnessFactor":0.5
			}
		},
		{
			"doubleSided":true,
			"name":"RocksMaterial.001",
			"pbrMetallicRoughness":{
				"baseColorFactor":[
					0.800000011920929,
					0.800000011920929,
					0.800000011920929,
					1
				],
				"metallicFactor":0,
				"roughnessFactor":0.5
			}
		},
		{
			"doubleSided":true,
			"name":"Sand.001",
			"pbrMetallicRoughness":{
				"baseColorFactor":[
					0.800000011920929,
					0.800000011920929,
					0.800000011920929,
					1
				],
				"metallicFactor":0,
				"roughnessFactor":0.5
			}
		},
		{
			"doubleSided":true,
			"name":"RocksMaterial",
			"pbrMetallicRoughness":{
				"baseColorFactor":[
					0.800000011920929,
					0.800000011920929,
					0.800000011920929,
					1
				],
				"metallicFactor":0,
				"roughnessFactor":0.4000000059604645
			}
		}
	],
	"meshes":[
		{
			"name":"Plane.003",
			"primitives":[
				{
					"attributes":{
						"POSITION":0,
						"TEXCOORD_0":1,
						"NORMAL":2,
						"TANGENT":3
					},
					"indices":4,
					"material":0
				}
			]
		},
		{
			"name":"Plane.004",
			"primitives":[
				{
					"attributes":{
						"POSITION":5,
						"TEXCOORD_0":6,
						"NORMAL":7,
						"TANGENT":8
					},
					"indices":9,
					"material":1
				},
				{
					"attributes":{
						"POSITION":10,
						"TEXCOORD_0":11,
						"NORMAL":12,
						"TANGENT":13
					},
					"indices":14,
					"material":2
				}
			]
		},
		{
			"name":"Plane.005",
			"primitives":[
				{
					"attributes":{
						"POSITION":15,
						"TEXCOORD_0":16,
						"NORMAL":17,
						"TANGENT":18
					},
					"indices":19,
					"material":0
				}
			]
		},
		{
			"name":"SharpRock",
			"primitives":[
				{
					"attributes":{
						"POSITION":20,
						"TEXCOORD_0":21,
						"NORMAL":22,
						"TANGENT":23
					},
					"indices":24,
					"material":3
				}
			]
		}
	],
	"accessors":[
		{
			"bufferView":0,
			"componentType":5126,
			"count":1535,
			"max":[
				2.8925299644470215,
				0.15931153297424316,
				3.2227325439453125
			],
			"min":[
				-2.8502750396728516,
				0.15931153297424316,
				-1.067644476890564
			],
			"type":"VEC3"
		},
		{
			"bufferView":1,
			"componentType":5126,
			"count":1535,
			"type":"VEC2"
		},
		{
			"bufferView":2,
			"componentType":5126,
			"count":1535,
			"type":"VEC3"
		},
		{
			"bufferView":3,
			"componentType":5126,
			"count":1535,
			"type":"VEC4"
		},
		{
			"bufferView":4,
			"componentType":5123,
			"count":1920,
			"type":"SCALAR"
		},
		{
			"bufferView":5,
			"componentType":5126,
			"count":228,
			"max":[
				2.8174989223480225,
				0.0559493787586689,
				3.538712978363037
			],
			"min":[
				-2.814915895462036,
				-0.8252525925636292,
				-0.6691935062408447
			],
			"type":"VEC3"
		},
		{
			"bufferView":6,
			"componentType":5126,
			"count":228,
			"type":"VEC2"
		},
		{
			"bufferView":7,
			"componentType":5126,
			"count":228,
			"type":"VEC3"
		},
		{
			"bufferView":8,
			"componentType":5126,
			"count":228,
			"type":"VEC4"
		},
		{
			"bufferView":9,
			"componentType":5123,
			"count":288,
			"type":"SCALAR"
		},
		{
			"bufferView":10,
			"componentType":5126,
			"count":64,
			"max":[
				13.152810096740723,
				0.055949438363313675,
				11.260099411010742
			],
			"min":[
				-13.150229454040527,
				0.0559493787586689,
				-8.390576362609863
			],
			"type":"VEC3"
		},
		{
			"bufferView":11,
			"componentType":5126,
			"count":64,
			"type":"VEC2"
		},
		{
			"bufferView":12,
			"componentType":5126,
			"count":64,
			"type":"VEC3"
		},
		{
			"bufferView":13,
			"componentType":5126,
			"count":64,
			"type":"VEC4"
		},
		{
			"bufferView":14,
			"componentType":5123,
			"count":192,
			"type":"SCALAR"
		},
		{
			"bufferView":15,
			"componentType":5126,
			"count":6707,
			"max":[
				1.0277644395828247,
				2.9999749660491943,
				-0.08126664161682129
			],
			"min":[
				-2.6060633659362793,
				-0.0011098384857177734,
				-8.922018051147461
			],
			"type":"VEC3"
		},
		{
			"bufferView":16,
			"componentType":5126,
			"count":6707,
			"type":"VEC2"
		},
		{
			"bufferView":17,
			"componentType":5126,
			"count":6707,
			"type":"VEC3"
		},
		{
			"bufferView":18,
			"componentType":5126,
			"count":6707,
			"type":"VEC4"
		},
		{
			"bufferView":19,
			"componentType":5123,
			"count":10176,
			"type":"SCALAR"
		},
		{
			"bufferView":20,
			"componentType":5126,
			"count":96,
			"max":[
				1.3502593040466309,
				1.3034213781356812,
				1.3502593040466309
			],
			"min":[
				-1.3502593040466309,
				-1.161956548690796,
				-1.3502593040466309
			],
			"type":"VEC3"
		},
		{
			"bufferView":21,
			"componentType":5126,
			"count":96,
			"type":"VEC2"
		},
		{
			"bufferView":22,
			"componentType":5126,
			"count":96,
			"type":"VEC3"
		},
		{
			"bufferView":23,
			"componentType":5126,
			"count":96,
			"type":"VEC4"
		},
		{
			"bufferView":24,
			"componentType":5123,
			"count":324,
			"type":"SCALAR"
		}
	],
	"bufferViews":[
		{
			"buffer":0,
			"byteLength":18420,
			"byteOffset":0,
			"target":34962
		},
		{
			"buffer":0,
			"byteLength":12280,
			"byteOffset":18420,
			"target":34962
		},
		{
			"buffer":0,
			"byteLength":18420,
			"byteOffset":30700,
			"target":34962
		},
		{
			"buffer":0,
			"byteLength":24560,
			"byteOffset":49120,
			"target":34962
		},
		{
			"buffer":0,
			"byteLength":3840,
			"byteOffset":73680,
			"target":34963
		},
		{
			"buffer":0,
			"byteLength":2736,
			"byteOffset":77520,
			"target":34962
		},
		{
			"buffer":0,
			"byteLength":1824,
			"byteOffset":80256,
			"target":34962
		},
		{
			"buffer":0,
			"byteLength":2736,
			"byteOffset":82080,
			"target":34962
		},
		{
			"buffer":0,
			"byteLength":3648,
			"byteOffset":84816,
			"target":34962
		},
		{
			"buffer":0,
			"byteLength":576,
			"byteOffset":88464,
			"target":34963
		},
		{
			"buffer":0,
			"byteLength":768,
			"byteOffset":89040,
			"target":34962
		},
		{
			"buffer":0,
			"byteLength":512,
			"byteOffset":89808,
			"target":34962
		},
		{
			"buffer":0,
			"byteLength":768,
			"byteOffset":90320,
			"target":34962
		},
		{
			"buffer":0,
			"byteLength":1024,
			"byteOffset":91088,
			"target":34962
		},
		{
			"buffer":0,
			"byteLength":384,
			"byteOffset":92112,
			"target":34963
		},
		{
			"buffer":0,
			"byteLength":80484,
			"byteOffset":92496,
			"target":34962
		},
		{
			"buffer":0,
			"byteLength":53656,
			"byteOffset":172980,
			"target":34962
		},
		{
			"buffer":0,
			"byteLength":80484,
			"byteOffset":226636,
			"target":34962
		},
		{
			"buffer":0,
			"byteLength":107312,
			"byteOffset":307120,
			"target":34962
		},
		{
			"buffer":0,
			"byteLength":20352,
			"byteOffset":414432,
			"target":34963
		},
		{
			"buffer":0,
			"byteLength":1152,
			"byteOffset":434784,
			"target":34962
		},
		{
			"buffer":0,
			"byteLength":768,
			"byteOffset":435936,
			"target":34962
		},
		{
			"buffer":0,
			"byteLength":1152,
			"byteOffset":436704,
			"target":34962
		},
		{
			"buffer":0,
			"byteLength":1536,
			"byteOffset":437856,
			"target":34962
		},
		{
			"buffer":0,
			"byteLength":648,
			"byteOffset":439392,
			"target":34963
		}
	],
	"buffers":[
		{
			"byteLength":440040,
			"uri":"WaterfallMesh-e0d601490d6fbdd8bdad4b94885f9536.bin"
		}
	]
}
